<?xml version="1.0" encoding="utf-8"?>
<!-- Generator: Adobe Illustrator 21.1.0, SVG Export Plug-In . SVG Version: 6.00 Build 0)  -->
<svg version="1.1" id="Layer_1" xmlns="http://www.w3.org/2000/svg" xmlns:xlink="http://www.w3.org/1999/xlink" x="0px" y="0px"
	 viewBox="0 0 422 172" style="enable-background:new 0 0 422 172;" xml:space="preserve">
<style type="text/css">
	.st0{fill:#CCB72F;}
	.st1{fill:#FFFFFF;}
</style>
<rect width="422" height="171"/>
<g>
	<path class="st0" d="M100,163.3c-0.8,4.3-3.1,6.3-7.3,6c-3.8-0.2-7.6-0.6-11.3-1c-4.6-0.5-8.4-4.5-9.3-10.4
		c-0.5-3.3-0.3-6.8,0-10.1c0.6-5.4,1.1-10.9,2.5-16.2c1.5-5.9,3.7-11.5,5.7-17.2c1.2-3.2,2.8-6.2,3.9-9.4c1-2.9,2.7-4.9,5.4-5.9
		c7.1-2.6,10.4-8.1,12.4-14.9c0.4-1.4,0.7-2.8,1.2-4.7c-0.8,0.5-1.2,0.7-1.6,1c-3.8,2.8-7.3,6.1-11.4,8.3c-2.7,1.4-5.5,2.4-8.2,4
		c-4,2.4-8,4.7-12,6.8c-10.2,5.3-20.7,10.3-30.8,15.9c-4.2,2.3-8.6,5.1-11.3,8.8c-4.7,6.2-7.5,13.6-8.9,21.4c-1.1,6-3,11.8-4.5,17.6
		c-0.6,2.4-2.6,2.6-4.6,2.6c-1.8,0-2.3-1.2-2.8-2.7c-2.5-7.8-2.3-15.5-0.1-23.3c1.5-5.4,2.5-10.9,4.4-16.2c1.1-3.1,3.1-6.1,5.2-8.7
		c6.4-7.9,15-13.3,23.1-19.3c5.1-3.8,10.1-7.7,15.6-10.9c7-4,14.3-7.5,21.6-11c9.5-4.6,18.1-10.5,26.5-16.8
		c6.4-4.8,12.1-10.4,18-15.8c6.5-6.2,14.5-10.4,22.2-14.9c6.1-3.5,12.4-6.1,19.3-6.7c6.3-0.5,12.6-0.5,18.9,0
		c9.5,0.6,18.9,1.9,28.3,2.7c9.5,0.9,18.6,3.2,27.8,5.7c10.5,2.9,21.2,3.1,31.8,0.8c2.4-0.5,4.6-1.9,6.9-3c0.5-0.2,1-0.7,1.1-1.2
		c0.7-2.9,3.1-4.1,5.3-5.3c6.5-3.5,13.4-5.9,20.9-6.4c2.4-0.2,4.7-1.4,7-2c10.7-2.7,21.4-5.7,32.5-5.6c8.4,0,16.7,0.1,25.1,0
		c1.4,0,2.8-1,4.1-1.6c2.3-1.1,4.6-2.3,7.2-3.6c0.8,2.2,1.4,4,2.1,5.8c2.3-0.9,4.5-1.8,6.7-2.6c2.1-0.8,3.3-0.1,3.7,2.1
		c0.3,1.8,0.9,3.6,0.5,5.3c-0.8,3.4,1.4,4.7,3.5,6.1c1.8,1.2,4,1.9,5.7,3.3c1.8,1.6,3.6,3.5,4.7,5.6c2.4,4.6,4.1,9.5,6.6,14
		c1.6,2.9,4.4,5.2,5,8.6c0.4,2.6,0.7,5.3,0.3,7.8c-0.2,1.3-1.8,2.5-2.9,3.7c-1.2,1.2-3.1,2-3.9,3.5c-2.1,3.7-5,6-9.2,6.5
		c-0.3,0-0.6,0.1-1.1,0.2c0.5,4.2-1.9,6.4-5.3,8.1c-2.6,1.3-4.7,2.9-11.1,0.7c-2.9-2.5-1.5-1.9-2.5-4c-0.3-0.6-0.9-1.2-0.9-1.8
		c0.2-2.6-1.2-2.6-3.1-2.1c-5.4,1.5-10.8,2.9-16.2,4.3c-0.2,0.1-0.5-0.1-0.9-0.1c0.1-0.7,0.2-1.3,0.3-2.1c-2.1-0.5-5.1,2.4-5.8-1.7
		c-6.7-0.2-9.6,7.6-7.1,12.3c2.3,4.2,2.4,9.4,1.5,14c-0.7,4,0,5.8,2.3,9.3c1.3,1.9,1.4,5.1,2.9,6.9c2.8,3.3,5.4,6.8,8.2,10.1
		c6.5,7.7,13.1,15.3,19.7,22.9c1.3,1.5,3,2.7,4.6,3.9c1.6,1.1,3.3,1.1,5.2,0.3c2.9-1.3,5.9-2.3,8.9-3.3c3.3-1.2,6.5-0.8,9.6,0.4
		c1.1,0.4,2,1.5,2.9,2.4c1.9,1.7,4.2,3.1,5.6,5.2c1.2,1.6,1.3,4,2.1,6.5c-3.4-0.6-4-2.9-5.2-4.6c-1.3-1.9-2.4-4.1-3.9-5.8
		c-3.1-3.7-7.1-4-11.3-2.4c-4,1.6-7.9,3.3-11.9,5c-2.7-0.8-7.3-0.8-9.7-3.8c-0.7-1-9.2-13.2-11.2-15.3c-0.2,0-9.6-3-11.9-2.5
		c-0.7,2.3-7.1,9.4-9.6,9.4c-1.4,0-2.2,3.1-1.2,4.8c0.6,1.1,1.5,2.2,2.5,2.9c0.5,0.4,10.7,7.8,13.9,8.8c2.2,0.7,4.5,1.1,6.5,2.1
		c2.6,1.3,5.1,3,7.4,4.8c3.1,2.5,3.4,2.7,7.4,0.6c-0.7-0.6-1.3-1.1-2-1.7c0.4-0.4,0.7-0.8,1-1.1c2.7-2.7,2.5-4-1-5.8
		c-1.1-0.5-2.2-1.1-3.1-2c4.4-0.3,6.2,1,7.6,4.8c0.7,1.8,0.7,4.3,3.4,4.8c0.2,0,0.3,0.4,0.4,0.6c1.2,3.4,3.9,3.8,6.9,3.2
		c2.2-0.4,4.5-0.9,6.6-1.6c2.9-1,3.4-2.7,1.2-4.9c-1.4-1.4-1-2.2,0.1-3.3c1.7-1.7,1.5-2.5-0.6-3.3c-1.3-0.5-2.6-0.6-3.9-1.1
		c-0.8-0.3-1.4-0.8-2.5-1.4c3.7-0.9,8,0.2,9.1,2.5c1.2,2.8,1.9,5.8,3,9.3c1-0.9,2.3-1.9,3.4-3.1c0.2-0.2-0.4-1.1-0.7-1.6
		c-0.6-1.1-1.6-2.3-1.6-3.4c0.1-2.6-0.8-4.3-3.3-5.1c-1-0.3-2-0.5-3.1-0.7c1.5-1.4,4.9-1.2,6.2,0.5c1.9,2.5,3.5,5.2,5.5,7.5
		c1.5,1.7,1.2,3.1-0.2,5.2c1.2-0.3-3.9,2.4-5.8,3.2c-5,2-18.4,4.5-17.5,3.9c-1.2-1-2.6-2.2-3.7-3.2c-1.3,0.2-2.3,0.4-3.4,0.5
		c-0.6,0.1-1.4-0.2-1.9,0c-3.4,1.3-6.2,0.4-8.7-2c-3.5-3.5-8.3-4.3-12.6-5.9c-5.8-2.2-11.4-4.9-15.9-9.3c-2.9-2.9-5.2-6.4-7.9-9.6
		c-0.3-0.3-0.7-0.6-1.1-0.8c-1.7-0.8-3.4-1.4-5-2.2c-1.4-0.7-2.3-0.2-3.2,0.7c-0.7,0.6-1.4,1.2-2.4,1.9c-0.4-2.3-1.6-2.8-3.4-3.2
		c-2.2-0.4-3.7-2-4.6-4.3c-1-2.3-2.4-4.3-3.7-6.4c-1-1.5-2.1-3.1-3.3-4.4c-3.3-3.5-7.2-3.8-11.6-2.5c-1.6,0.5-3.7,1.5-4.9,0.9
		c-2.3-1.1-4.5-0.8-6.8-0.9c-1.5,0-3.1-0.1-4.4,0.4c-4.4,1.7-8.7,4.1-13.2,5.4c-6.3,1.9-12.7,1.7-19.2,0.4c-8.1-1.6-16.3-2.7-24.5-4
		c-0.7-0.1-1.3-0.6-2-0.9c-1.3-0.6-2.7-1.2-4-1.8c-0.3,0.2-0.6,0.5-0.9,0.7c1.3,3.4,2.4,6.8,3.8,10.2c1.1,2.6,2.5,5.1,3.6,7.7
		c1.6,3.7,5.2,5.2,8.4,7.1c3.4,2.1,7.2,3.6,10.8,5.6c2.3,1.3,4.6,1,7,0.6c3-0.5,6-0.7,9-0.8c4.2-0.2,6.2,2.7,7.7,5.9
		c0.5,1,0.2,2.7-0.4,3.7c-1.2,2-2.8,3.7-4.3,5.4c-0.3,0.3-0.9,0.2-1.4,0.3c0.1-0.5,0.1-1.1,0.4-1.4c2.6-2.7,2.8-4,0.4-7
		c-0.9-1.1-1.9-2-2.8-3c-1.4-1.5-2.8-1.6-4.5-0.4c-0.8,0.5-2.1,0.4-3.1,0.6c-0.1-0.3-0.1-0.7-0.2-1c2.1-0.4,4.1-0.9,6.2-1.3
		c0-0.2,0-0.4,0-0.6c-1.4,0-3-0.3-4.3,0.1c-3.2,1-6.3,2.4-9.5,3.6c-2,0.7-4,1.2-5.6-0.8c-0.8-1-1.1-1.9-2.5-0.3
		c-0.4,0.5-2.5,0.1-3.4-0.5c-2.1-1.3-3.9-3-5.9-4.5c0.1-0.2-0.8,0.2-1.2,0c-2.3-1.1-4.4-2.6-6.8-3.5c-2.2-0.8-3-2-2.8-4.2
		c0.1-1.7-5.2-10.4-5.1-11c0.3-1.8-0.4-11.2-1.2-13.6c-0.7,0.8-2.9-1.5-2.8-1.8c-5.2-3.2-10.2-6.3-15.2-9.4c-3-1.9-5.8-4.2-9-5.7
		c-3.2-1.6-6.8-2.7-10.2-3.6c-2-0.5-4.3-0.4-6.4-0.4c-0.7,0-1.4,0.6-2,1c2.6,2.2,4.8,4.3,7.2,6c1.1,0.8,2.6,1.1,4,1.4
		c4.1,0.9,8.2,1.6,12.3,2.4c0.6,0.1,1.1,0.6,1.7,0.8c-0.2,0.4-0.4,0.7-0.6,1.1c-3.9-0.2-7.8-0.4-11.7-0.6c-0.1,0.3,0.6,1.8,1.1,2.3
		c1.4,1.6,2.8,3.3,4.3,4.8c0.5,0.6,1.5,1.3,2,1.2c4.5-1.1,8.4,0.8,12.4,2.2c2.1,0.8,4.1,1.9,6.1,2.8c-0.1,0.4-0.2,0.7-0.4,1.1
		c-1-0.2-1.9-0.4-2.9-0.6c-3.7-0.5-7.5-1.1-11.3-1.5c-2.4-0.3-2.9,0.4-2.4,2.8c0.2,1,0.5,2,0.7,2.9c0.9,0.2,1.6,0.4,2.4,0.6
		c1.3,0.4,2.5,0.4,3.4-0.8c1.3-1.6,2.7-1.7,4.5-0.6c2.6,1.6,5.3,2.9,7.9,4.4c-0.1,0.3-0.2,0.6-0.2,0.9c-1.4,0.1-2.7,0.2-4.1,0.3
		c-2.5,0.1-4.9,0.1-7.4,0.1c-2,0-3.9-0.3-6.4-0.4c-0.5,1-0.2,2.8,1,4.1c1.9,2.1,4,4.2,6.2,6c0.6,0.5,1.8,0.2,2.8,0.1
		c3.4-0.5,6.8-1.2,10.3-1.6c0.8-0.1,1.6,0.6,2.4,1.1c-3.9,1.2-8,0.9-10.9,4.3c2.4,2.4,5.3,1.8,8.2,1.3c2.9-0.5,5.8-0.5,9,1.6
		c-3,1.2-5.5,2.1-8.2,3.2c0.1,0.5,0.1,1.1,0.4,1.3c2,1.6,4,3.2,6.1,4.6c0.6,0.4,1.7,0.1,2.5-0.1c1.2-0.4,2.3-0.9,3.4-1.4
		c-0.4,2.1-1.5,4-0.9,5.3c0.7,1.8,2.7,3,4.2,2.6c1.3-1.5,2.2-2.5,3-3.4c0.3,0.2,0.6,0.4,0.8,0.6c-0.2,0.8-0.4,1.7-0.5,2.6
		c4.5,1.4,9,2.9,13.5,4.3c1.2,0.4,2.1,0.3,2.7-1.1c0.8-1.8,2.4-1.1,3.5-0.5c3.3,1.7,6.7,1.5,10.1,0.5c2.7-0.8,3-2.3,1.2-4.3
		c-1.3-1.4-2.7-2.5-4.2-3.7c-0.4-0.3-1.1-0.4-1.6-0.4c-2.5,0.2-5,0.6-7.5,0.9c-0.1-0.2-0.1-0.5-0.2-0.7c0.7-0.2,1.4-0.4,2.2-0.5
		c1.7-0.1,3.4-0.1,5.1-0.2c4.4-0.4,7.8,1.8,8.9,6.1c0.7,2.5,0.1,3.8-2.4,4.3c-3.8,0.7-7.7,1-11.6,1.5c-2.9,0.4-5.8,1-8.6,1.4
		c-0.5,0.1-0.6-0.8,0.5-1.4c-4.4-1.7-8-4.7-12.5-4c-2.9,0.5-4.8-0.5-6.8-2.1c-6.1-4.9-12.1-9.9-18.2-14.8c-2.8-2.2-5.5-4.6-8.4-6.5
		c-1.5-1-3.5-1.4-5.9-2.3c-0.5-4-1.2-8.7-1.8-13.4c-0.6-4.6-2.6-8.3-5.8-11.6c-3.2-3.3-5.9-7-9.2-10.2c-2.7-2.5-5.8-4.5-8.9-6.6
		c-0.7-0.4-2.2-0.2-3,0.3c-5,3.2-10.4,5.7-14.6,10.2c-4.4,4.8-9.4,9.1-13.9,13.9c-5,5.3-11.6,8-17.9,11c-2.5,1.2-5,0.9-7.6,0.3
		c-1.6-0.4-3.2-1-4.8-1.3c-0.6-0.1-1.3,0.2-1.8,0.5c-3.9,3.3-7.4,6.9-8.7,12.1c-0.9,3.9-0.2,5.5,2.8,8c2,1.7,3.4,4.1,5.2,5.9
		 M393.6,30.3c-4.2,0.9-6.4-0.4-7.6-4.5c0-0.2-0.1-0.3-0.2-0.4c-0.3-0.5-0.7-1.5-1-1.4c-0.6,0-1.4,0.4-1.7,0.9
		c-1.4,2.5-2.8,5.1-3.9,7.8c-1,2.6-2,8.3-1.5,8.6c-0.5,0.8-0.3,2.7-0.2,3.1c0.3,2.6,0.3,5.2,0.9,7.7c0.4,1.5,1.4,3.4,2.7,3.9
		c3.5,1.3,6.9,3.3,10.9,2.4c0.4-0.1,0.8,0.2,2,0.5c-4.8,1.5-8.8,2.9-13.2,2.1c-5-0.9-8.6-5.1-8.3-10.1c0.2-3.1,0.8-6.1,1.5-9.2
		c1-4.4,2.2-8.7,3.5-13.7c-3.1,1.1-5.5,1.9-7.9,2.8c-0.1-0.3-0.3-0.5-0.4-0.8c1-0.6,1.9-1.2,3-1.7c5-2.3,10-4.6,14-8.6
		c3.7-3.7,4.8-7.7,4.1-12.5c-0.3-2-1.6-2.6-2.8-1.1c-1.4,1.7-2.4,4-3,6.1c-1.3,4.4-4.7,6.8-7.7,9.6c-0.2-0.2-0.4-0.3-0.6-0.5
		c1.3-1.6,3-7.2,1.9-7c0.5-0.8-6.7,0.7-7.3,5.6c-0.2,1.6-1.5,3-2.3,4.3c-1.7-1.1-10.3,5.2-13.3,9.7c-0.6-1.1-1-1.6-0.9-1.7
		c3.5-5.8,7.1-11.6,10.5-17.1c0-1.3,0-2.4,0-3.8c-7.3,3.2-13.7,7.6-18.9,13.7c2.4-6.7,8.2-10.1,13.5-14c-1.5,0.4-9.6,0.4-9.1-0.4
		c-4.2,0.8-11.6,8.9-12.8,9.9c-0.5,0.4-1.3,0.3-1.9,0.4c-0.1-0.2,3-6.8,2.9-7c1.7-2.4-10-2.1-11.6,2.3c-1.1,3-3,11.7-3.8,14.8
		c-0.6,2.2-1.3,4.4-2,6.6c-0.3,0-0.5-0.1-0.8-0.1c0-3.8-0.5-7.6,0.1-11.2c0.7-4.3,3-13,2.7-13.1c-1.9,1.7-9.8,6.2-11.9,9
		c-1,1.4-2.6,2.7-2.2,5.2c0.3,2-1.1,4.1-1.7,6.2c-0.3-0.1-0.7-0.1-1-0.2c0-2.2-0.5-4.6,0.1-6.6c0.8-2.6,2.5-4.8,3.6-7.3
		c0.3-0.7,0.2-1.5,0.4-2.9c-0.9,0.7-1.4,1.1-1.9,1.5c-1.5,1.3-7,6.3-7.6,7.2c-3.4,5.1-6,10.5-6.8,16.6c-0.2,1.2-0.7,2.4-1.1,3.6
		c-0.3,0-0.7-0.1-1-0.1c-0.2-1.7-0.6-3.4-0.6-5.1c0-1.8,0.2-3.7,0.5-5.5c0.6-3.8,1.6-7.4,4.8-10c2.4-1.9,7.5-6.7,7.8-7.8
		c-1.2,0.8-11.1,4.2-12.6,6.7c-1.9,3-2.9,6.4-4.3,9.6c0,0-1.9,11.7-4.2,12.6c0.6-4.7-1.1-9.3,0.8-14c1.7-4.3,2.9-8.9,4.4-13.5
		c-6.3,2.3-9.8,6.7-10.7,13.2c-0.2,1.2,0.4,2.6,0,3.6c-2,5-4.2,10-6.4,15.1c2.6-0.7,5.5-1.6,8.5-2.3c1.9-0.5,3.9-1.1,5.7,0.6
		c-6.5,5.5-12.9,10.9-19.2,16.2c1.7-6.1,7-9.3,11.4-13.9c-1.3,0.3-2.1,0.4-2.9,0.8c-4.5,1.8-8.2,4.7-11.6,8.1c-3.4,3.4-5.4,7.5-7,12
		c-1.8,5.2-4.8,10-3.9,15.8c0,0.2-0.2,0.4-0.2,0.6c-2.4-1.7-3.2-5.3-1.8-9.4c1.1-3.2,2.4-6.3,3.6-9.4c-4.2,3.6-8.2,7.5-11.8,11.6
		c-1.5,1.8-1.4,6.8,0.4,7.3c2.2,0.6,4.1,1.7,6.1,2.7c2.5,1.3,5.2,2.1,7.8,3.3c0.2,0.1,0.4,1.3,0.2,1.4c-1.8,1.5-3.8,2.1-6.2,1.8
		c-1.4-0.2-2.9,0.1-4.4,0.2c0,0.2,4.5,2.1,7.7,2.2c6.1,0,11.5,0.6,11.5,0.8c-2.9,2.2-6.8,2.1-10.1,3.8c4.6,4.6,11.2,3.7,14.9,2.7
		c6-1.7,12-3.7,18-5.3c1.4-0.4,3.1-0.1,4.7-0.1c-3.3,1.7-6.5,2.9-9.6,4.2c-0.8,0.3-1.5,0.8-2.2,1.3c-1.2,0.9-8.1,3.4-9.4,4.1
		c-1.7,0.9,2.3,4.6,7,4.6c4.5-1.2,11.3-1.3,14.6-2.4c8-2.7,9.3-3.3,10.9-2.6c-2.8,1.6-2.3,2.7-8.4,4.7c1.4,2.6,11.9,2.3,12,2.4
		c2.2-0.5,5.9,2.8,6.2,3.4c2.3,3.7,4.7,7.3,7.1,11c1.4,2.3,3.2,3.9,5.4,3.6c1.1-1.2,1.7-2.3,2.5-2.5c1-0.3,2.3,0.2,3.4,0.4
		c0.5-4.2-0.6-5-3.6-8.2c-1.3-1.4-2.7-2.7-2.2-5.3c1.7,2,3.2,3.6,4.5,5.3c1.1,1.4,2.1,3,2.7,4.7c0.4,1.2,0.2,2.8,0,4.1
		c-0.2,2.4,1.8,2.7,3.2,3.5c1.3,0.8,2.1-0.1,3.1-1c0.7-0.7,1.8-1.1,2.8-1.1c1.5,0,2.1-0.6,1.8-1.9c-0.3-1.8-0.7-3.5-2.6-4.7
		c-1.7-1.1-3-2.7-4.4-4.1c0.2-0.3,0.4-0.5,0.6-0.8c1.7,1.2,3.5,2.2,5.1,3.6c2.6,2.1,2.9,5.2,2.9,8.7c1.1-0.6,2.4-0.8,2.7-1.5
		c0.5-1.1,0.9-2.7,0.5-3.7c-0.6-1.6-1.7-3-2.8-4.2c-1.3-1.4-3-3.5-4.2-3.4c-2.7,0.3-3.3-1.5-4.5-2.8c-0.8-0.8-1.4-1.9-2.1-2.9
		c-0.6,0.5-3.1-2.1-3.9-3.6c-0.2,0.1-5.3-3.6-6.1-5.3c-0.1,0-5.1-5.2-6.1-6.3c-1-1.1-1.3-2.7-2.1-4.1c-0.4-0.7-0.9-1.2-1.4-1.8
		c-0.1,0.1-2.6-0.6-3.8-0.9c-2-0.4-4.2-0.1-6.4,0.1c-3.1,0.3-6,1.3-9.3,0.4c-6.1-1.6-12.4-2.4-18.7-0.2c-0.8,0.3-1.5,0.5-2.3,0.6
		c-0.6,0.1-1.3-0.1-1.9-0.1c0-0.2-0.1-0.4-0.1-0.6c1.9-1.1,3.9-2.1,5.8-3.2c-0.1-0.2-0.2-0.5-0.3-0.7c-4.5,1-9.1,1.9-13.6,2.9
		c-0.1-0.3-0.2-0.6-0.3-0.8c0.8-0.4,1.6-0.8,2.4-1.2c1.3-0.6,2.6-1.2,4-1.8c1.2-0.5,2.3-1.5,3.4-1.5c1.8-0.1,3.7,0.3,5.5,0.6
		c1.5,0.2,3,0.5,4.9,0.8c-3.8-6-3.8-15.2-0.1-19.2c0.2,1.6,0.3,3,0.4,4.5c0.1,1.5,2,8.5,2.3,10.6c0.1,0.4,0.2,0.7,0.4,1
		c0.3,0.5,1.4,5.2,3.5,5.7c1.8,0.5,3.6,1,5.4,1.2c1.1,0.1,2.2-0.3,3-0.4c-1-2.2-2.5-3.9-2.5-5.8c-0.3-5.5-2.7-10.5-2.1-16.3
		c0.4-4,0.8-7.8,2.2-11.5c0.3-0.7,0.9-1.2,1.2-1.7c0.2,3,0.4,5.8,0.6,8.7c0.1,1.6,2.7,16.3,2.8,18.5c0.1,2.6,1.2,4.8,1.4,8.1
		c7-4.6,15.1,3,21.8,8.2c0.4-2.3,0.4-4.7,1.3-6.6c1.2-2.4,3.2-4.5,4.9-6.6c1.3-1.5,3-2.6,4.2-4.2c1.4-1.8,6.6-6.3,6.5-5.8
		c0.1,0,2.7-5.2,4.1-8.3c-1.5,1-2.9,0.1-2.4-0.9c2.5-4.5,3.8-9.5,3.6-14.6c-0.1-3.4,1.2-5.9,2.6-8.3c1.7-2.9,4.4-5.1,6.9-8
		c0.2,0.3,0.5,0.8,0.8,1.3c0,0.1,0,0.2,0,0.2c-4.4,4.2-4.9,6.4-5.6,10.8c-0.3,1.9-0.6,3.9-1,5.8c-0.2,1.2-0.2,2.4-0.3,3.8
		c2.9-1.3,3.7-3.6,4.5-6.2c2.1-6.4,4.8-12.7,7.3-19c0.3-0.7,1.8-0.4,1.9,0.4c1.4-1.2,4.9-3,5.2-2.7c-4,4.7-9.6,15.7-9.6,16.2
		c0.1,2.1,0.8,4,1.6,5.9c1.3,2.9,3.4,2.5,5.6,2.9c2.5,0.4,4.9,1.3,7.3,2c0.2,0.1,0.4,0.3,0.6,0.4c1.4,1.1,2.9,2.2,4.3,3.3
		c0.6,0.4,1.2,0.7,1.8,1c-0.1,0.2-0.2,0.5-0.3,0.7c-2.1-0.4-4.3-0.5-6.2-1.2c-3.7-1.4-7.4-2.1-11.3-1.2c-0.6,0.1-1.3-0.3-1.9-0.6
		c-1.8-0.9-3.5-1.6-5.4-1.2c-0.1,4-0.3,7.8,4.8,9c0.2-0.1,1.7,0.8,1.6,1.6c0.7-0.2,1.3-0.3,1.8-0.4c4.9-1.3,9.7-2.7,14.6-3.9
		c2.5-0.6,3.5,0.3,3.7,2.7c0.1,1,0.6,2.1,1.3,2.9c1,1.1,2.3,1.9,3.6,2.9c0.1,0,4.2,1.5,6,0.3c1.4-0.9,2.7-1.8,4-2.8
		c2.7-2,2.5-5.1-0.5-6.6c-3.1-1.5-6.1-4.3-10.1-1.9c0.5-2.6,2.6-3.5,5.5-2.6c2.3,0.8,4.5,1.7,6.8,2.6c4.2,1.7,8.7,0.6,10-2.9
		c0.8-2.2,0.7-4.8,0.9-7c-1.9-0.5-3.3-0.5-4.3-1.1c-2.1-1.3-4.3-1.5-6.4-0.7c-5.1,1.8-10.1,1-15-0.8c-0.4-0.2-0.8-1.1-0.8-1.7
		c0.1-1.7,1-3.5,0.6-4.9c-1.1-3.7,0.2-7.1,0.6-10.6c0.1-1.2,0.6-2.6,2.4-2.3c-0.1,1.4-0.1,2.8-0.2,4.1c-0.1,1.5,1.5,7.9,3.3,8.6
		c0.6,1.2,1.5,2.2,2.3,3.1c2.2,2.5,4.8,2.5,7.8,1.8c0.8-0.2,1.9,0.3,2.8,0.3c0.7,0,1.9-0.2,2-0.6c0.6-2.1-1.6-6.4-2.6-6
		c-3.3,1.5-6.5,1.8-9.7-0.1c-0.9-0.5-1.9-1.6-1.9-2.4c0-1.1,0.8-2.3,1.2-3.3c2.5,1.5,4.3,3,6.3,3.9c2.2,0.9,5.1-0.4,6.4-2.6
		c3,2.9,5.5,6.1,7,10c0.2,0.6,0.7,1.1,1.2,2c0-0.1,0.8,1.3,1.3,1.5c0.5,0.2,1,0.4,1.9,0.7c1.1-9.1-6.1-14.2-9.4-21.8
		c-1.6,2.7-2.9,4.9-4.2,7.1C395.4,40.7,392.8,36.7,393.6,30.3c1.1,0.5,1.4,1.5,2,2.5c1,1.6,3,2.7,4.7,3.9c0.4,0.3,1.4-0.1,1.9-0.4
		c0.5-0.4,0.7-1.2,1-1.8c-0.5-0.2-1.1-0.4-1.6-0.7c-1.9-1.1-4.1-2-5.7-3.5C394.7,29.1,394.3,29,393.6,30.3z M254.1,56.7
		c1.3,1.3,2.5,1.2,4.1,0.1c1.9-1.4,4-2.5,6.2-3.5c2.6-1.2,4.8-3,5.5-5.6c1.1-4.3,1.5-8.7,2-13.1c0.3-2.7-1.8-4-4.3-2.7
		c-1,0.5-2.1,1.5-2.6,2.5c-1.7,3.6-3.3,7.3-4.8,10.9c-0.8,2-1.8,3.7-3.9,4.5c-0.3-0.1-0.6-0.2-0.8-0.4c1.9-5.2,3.7-10.4,5.6-15.5
		c-1.5-1.1-7.1-1.8-8-0.8c-1.6,1.7-3.1,3.6-4.5,5.6c-1.9,2.6-3.7,5.3-5.6,8c-0.3,0-0.5,0-0.8-0.1c0-1.2-0.4-2.7,0.1-3.6
		c1.9-3.2,3.2-6.6,3.4-10.4c-3.3-1.8-4.5-1.4-6.3,1.9c-0.4,0.7-1.1,1.2-1.5,1.9c-1.6,2.4-3.2,4.7-4.7,7.1c-1.2,2-2.2,4.2-3.3,6.3
		c-0.3-6.3,2.7-13,6.6-19.6c-1.5-0.3-2.8-0.5-4-0.8c-2.2,5.9-3.1,7.2-5.1,7.9c-1.1-3.5,1.7-8,2.1-9.6c-1.8,0-4.2-0.7-5.1,0.1
		c-3.3,3.3-6.1,7.1-9.1,10.7c-0.7,0.9-1.4,1.8-2.1,2.7c-0.2-0.2-0.4-0.3-0.6-0.5c0.1-4.4,7.5-12.7,7.6-14.7c-2,0.1-4.1-1.9-6.2,0.1
		c-2.6,2.6-5,5.4-7.7,8c-1.8,1.8-3.8,3.3-6.2,5.4c2.7-5.3-9.7-5.3-9.8-5.5c3.1-3.3,6.1-6.7,9.4-10.3c-3.5-0.4-6.9-0.9-10.3-1.2
		c-2.5-0.3-4.7,0.4-6.6,2.4c-2.1,2.2-4.5,4.1-6.8,6.2c-0.3-0.3-0.7-0.5-1-0.8c1.7-2.8,3.4-5.6,5.1-8.4c-2.9-1.4-4.6,1-6.9,2.2
		c0.1-1,0.1-1.7,0.2-2.9c-3.7,0.4-7.1,0.7-10.5,1.3c-1.1,0.2-2.2,1.3-2.8,2.3c-1.6,2.4-3.1,5-4.5,7.5c-0.8,1.4-1.5,2.9-2.5,4.3
		c-0.3,0.5-1.1,0.6-2.4,1.3c0.8-6.5,4.1-11,7.4-15.7c-5.1,1-8.8,3.3-10.2,8.4c-1.3,4.5-2.7,8.9-4.2,13.4c-0.2,0.7-0.8,1.4-1.2,2.1
		c-0.2-0.1-0.4-0.2-0.7-0.3c0.9-6,0.6-12.1,3.7-17.9c-2.5,1-4.7,2.2-6.9,3.4c-0.2,0.1-0.4,0.5-0.5,0.8c-0.3,1.6-0.4,3.3-1,4.8
		c-1.4,4.1-3,8.1-4.7,12.1c-1.1,2.7-2.2,5.5-3.5,8.2c-0.6,1.2-1.6,2.2-2.4,3.3c-0.4-0.2-0.7-0.4-1.1-0.6c6.2-7.9,6.2-18.2,10.7-26.9
		c-2.1,1.1-4.4,2.2-6,3.9c-1.2,1.2-1.5,3.4-2.6,4.8c-2,2.6-4.3,4.9-6.5,7.4c-0.7,0.8-1.4,1.7-2,2.7c-0.3,0.5-0.1,1.3-0.4,1.8
		c-1.6,2.2-3.3,4.3-5,6.5c-0.4,0.6-0.6,1.3-0.9,2c-0.3-0.3-0.7-0.6-1-0.8c0.5-1.7,0.9-3.4,1.4-5.1c-0.2-0.1-0.5-0.1-0.7-0.2
		c-1,2.3-2.4,4.6-3,7c-2.1,7.6-3.6,15.4-5.9,22.9c-1.4,4.6-3,9.4-7.6,12.1c-2.4,1.4-4.8,2.6-7.2,4c-3.1,1.9-3.1,3.5-0.1,5.3
		c0.7,0.4-0.8,3.3-2.3,3.5c-1.8,0.2-2.5,1.2-3.5,2.5c-1.7,2.1-0.6,3.9,0.3,5.6c0.5,0.8,1.4,1.5,2.2,2c1.1,0.8,2.3,1.4,3.4,2.2
		c-0.1,0.2-0.1,0.5-0.2,0.7c-2.1,0.7-4.1,1.8-6.2,1.9c-2,0.1-6.1,4.3-6.3,5.6c-0.4,3.5-0.6,7-1.3,10.5c-1.4,7.3-2.8,14.5,1.4,21.5
		c1.6,2.7,2.2,3.3,5.7,2.7c-0.5-1.9-0.9-3.8-1.4-5.6c2.3-1.1,3-0.2,2.9,1.7c-0.1,1.7-0.3,3.3-0.4,5c3.4-0.6,4.1-1.7,3.5-5
		c-0.1-0.7,0.2-1.8,0.6-2.1c0.6-0.3,1.9-0.3,2.3,0.1c1.2,1.6,1,3.4,0.2,5.2c-0.6,1.6-1.6,0.9-2.6,0.9c-0.4,0-0.8,0.5-1.2,0.7
		c3.4,1.9,6.2,0,6.2-4c0-2.8,0.5-3.2,3.3-2.9c0.5,0.1,1.3-0.1,1.4-0.4c0.2-0.5,0.1-1.4-0.2-1.7c-0.9-0.9-1.9-1.8-2.9-2.5
		c-6.1-4-6.8-4.7-6-8.9c-3.9-1.4,9.2-22.2,8-24.3c3.1-0.9,5.8-0.3,7.6,1.7c0.5,0.5,0.3,1.7,0.4,2.6c2.3,0.1,4.7,2.5,7.5,0.8
		c0.7-0.4,1.4-0.9,2.1-1.4c-0.6-0.7-1.2-1.5-1.8-2.2c-0.7-0.6-1.9-1-2.2-1.7c-1.3-3.2-3.4-4.9-6.9-4.8c-0.3,0-0.5-0.4-1.2-1
		c3.1-0.5,5.9-1.8,8.3-1.2c2.2,0.5,8.4,7.9,8,9.4c1.3-0.4,2.7-0.5,3-1.2c0.5-1,0.7-2.7,0.1-3.5c-1.8-2.4-13.1-10.3-16.2-10.2
		c0-0.2,0-0.5,0-0.7c4.4-2.4,9.3-1.8,14-2.1c2.8,2.6,3.4,3.3,3.7,4.3c0.8,3.3,2,6.5,3,9.8c4.1-1.4,6-6.5,5.8-5.4
		c2.2-1.9,4.1-3.5,6-5.2c0.3-0.3,0.2-0.9,0.4-1.3c0.8-1.6,8.3-7.6,8.5-7.3c1.9-1.2,2.4-2.6,1.6-4.6c-1.6-4.1-3.1-8.3-4.8-12.4
		c-0.3-0.7-1.4-3.6-1.3-4.8c0.2-3,0.1-5.9,0.1-8.9c0.1-4.7,1.1-9.1,3-13.4c0.4-1,1.2-1.9,1.8-2.8c0.2,0.1,0.4,0.2,0.6,0.4
		c-0.4,0.8-0.9,1.7-1,2.5c-0.7,3.9-1.3,7.8-1,11.8c0.2,2.1,0.2,4.3,0.5,6.4c0.2,1.4,0.6,2.9,1,4.6c-0.2-0.1,3.7,12.4,3.9,13.5
		c1,4.8,0.3,4.4,4.6,3.2c-0.1,0.5,12.6-4.5,12-3.5c2.7-1.4,15.2,0.3,17.9,2.1c3,2.1,7,2.6,10.8,3.9c-1.5-5-7.5-16.8-7.7-18.5
		c-0.2-1.1-0.3-2.2-0.4-3.3c-0.1-2.2,1.6-10.8,2-13.1c0.4-2.5,4-8.5,4.3-9.4c1.8-5,4.9-8.9,9.4-11.8c0.6-0.4,1.2-0.7,1.9-1
		c0.3,0.3,0.5,0.7,0.8,1c-0.8,0.3-9.8,39.7-10.2,40.6c-0.2,0.5,0.1,3.6,0.3,4.7c0.2,0.8,0.8,1.6,0.9,2.5c0.5,3,0.8,6.1,1.1,9.2
		c0.2,2.2,1.2,3.4,3.3,3.9c0.6,0.1,6.1,3.1,8.5,4.1c1.2,0.5,9.9,4,11.9,5.4c2.6,1.9,5.3,3.9,8.8,4c1.1,0,2.2,0.5,3.3,0.8
		c1.1,0.3,15.2,3.1,15.4,3.1c3.3,0,19.6,1,19.2,1.5c4.1-1.2,8.1-2.4,12.4-3.7c-0.8-0.3-1.4-0.6-2.1-0.7c-7.2-1-13.9-3.8-20-7.3
		c-4.5-2.6-8.8-5.7-12.6-9.6c-4.1-4.2-6.4-8.7-6.7-14.4c-0.1-1.1-0.4-2.2-0.6-3.4c-0.2,0-0.5,0-0.7,0c-1.3,3.1-2.6,6.2-1.6,9.8
		c0.6,2.3,3.5,10.5,5,11.6c1.8,1.3,3,3.3,4.5,5c-0.2,0.3-0.4,0.6-0.6,0.9c-1.5-0.4-2.9-0.8-4.4-1.3c-1.1-0.4-2.2-0.9-3.2-1.4
		c-1.3-0.7-3-1.3-3.8-2.4c-2.2-3.2-2.7-7-2-10.6c1-4.6,2.7-9.1,4.1-13.7c0-0.1,3-5.8,5.3-8.5c-0.1-0.1,3.2-7.7,5.2-9.7
		C248.9,61.2,251.5,58.9,254.1,56.7z M338.3,103.9c-0.6,1-2.2,1.4-3.3,2.2c-1.6,1.2-3.1,2.5-4.9,3.9c1.3,1.1,2.7,2.2,3.9,3.3
		c4.2,3.7,8.2,5.3,13.6,2.9C349.4,111.5,340.9,99.2,338.3,103.9z M341.1,85c-2.1,1.8-4.4,3.4-6.3,5.5c-1.5,1.7-2.6,3.8-3.8,5.9
		c-1.3,2.4-2.1,5-3.7,7.2c-1,1.4-1.1,2.4,0.1,3.3c1.3,1,2.3,0.2,3.3-0.9c2.8-3.5,5.7-6.9,8.5-10.4c0.4-0.5,0.7-1.1,1-1.7
		c1.6-3.4,5.1-12.6,4.8-13.7c-0.2,0-0.5,0-0.7,0C343.5,83.1,341.3,85.2,341.1,85z M394.3,18.3c-0.7-1.3-1.4-2.7-3.3-1.9
		c-1.7,0.7-2.9,4-2.2,5.8c0.5,1.2,0.9,2.4,1.5,3.6c0.2,0.4,0.6,0.8,1,0.9c2.1,0.2,4.2,0.3,6.4,0.4c2.5,0.1,5.2-0.1,6.7,3.1
		c0.8-1,1.5-1.7,2.1-2.4c-0.7-1-1.3-1.9-1.9-2.7c-3.3-4.2-6.4-5.3-10.9-2.8c-0.3,0.2-0.6,0.4-0.9,0.3c-0.5-0.1-0.9-0.3-1.4-0.4
		c0.1-0.4,0.2-1,0.5-1.3C392.5,20,393.3,19.2,394.3,18.3z M85.2,80c-0.2-1.8-0.6-3.5-0.9-5.2c-0.1-0.8-0.3-1.6-0.4-2.4
		c-0.3,0-0.7,0-1,0c-0.1,0.8-0.4,1.6-0.4,2.4c0.1,1.5,0.5,3,0.5,4.5c0,0.7-0.5,1.8-0.9,1.9c-0.8,0.1-2-0.1-2.6-0.7
		c-0.6-0.7-0.8-1.8-0.9-2.8c-0.1-0.6,0.1-1.3,0.1-2.2c-3.5,0.7-0.6,9,0.6,10.9c-0.1,0-0.1,0.1-0.2,0.1c0.7,1,2.7,1.8,3,1.1
		c0.3,0.4,2.5-0.6,2.8-1C86.5,85.7,85.3,81,85.2,80z M74.9,91.3c-3.5-3.6-4-7.6-1.1-11.9c-1.7-0.3-3.1-0.5-4.3-0.7
		c-0.3,1.8-0.5,3.1-0.7,4.5c0.2,0.1,0.7,0.3,1.2,0.5c-1.8,4-2.5,4.2-5.4,1.4c-0.4-0.4-1-0.9-1.5-1c-0.8-0.3-1.7-0.3-2.5-0.4
		c-0.1,0.9,0.4,2.3,0.7,2.2c0.7,0.7,1.4,1.6,2.2,2.2c2.6,1.7,5.3,3.3,8,5C72.4,92.5,73.5,92,74.9,91.3z M61.9,95.4
		c-2.1-1.8-4.2-3.5-6.1-5.5c-1.4-1.4-2.8-1.7-4.4-1c-1.3,0.6-2.5,1.5-3.9,2.3c2.2,1.5,4.6,2.5,5.9,4.2c1.3,1.8,2.5,6.7,2.7,6.7
		C56.4,100.4,63.8,97,61.9,95.4z M352.2,131c1.5-0.7,3.2-2,5.1-2.2c1.6-0.2,1.7-0.9,1.7-2c-0.1-0.9-0.4-1.9-0.6-2.8
		c-0.7,0-1.6,0.2-1.7,0c-0.9-2.2-2.6-2.1-4.4-1.9c-1.8,0.2-3.6,0.2-5.4,0.4C348.8,125.5,350.5,128.2,352.2,131z M37.9,99.8
		c3.7-0.1,3.5,0,4.4,3.9c0.4,1.8,1.8,3.4,2.8,5.1c0.8-1.3,1.2-2.5,1.9-2.7c1.8-0.4,1.8-1.5,1.4-2.8c-0.6-1.8-1.4-3.6-2.1-5.4
		c-0.1-0.3-0.5-0.7-0.8-0.8C41.5,95.9,40.6,96.2,37.9,99.8z M10.1,136.5c2.8,0,5.6,0,8.5,0c-0.2-1-0.4-2-0.6-3
		c0.1,0,0.3-0.1,0.4-0.1c0.3,0.4,1.4-1.8,0.3-3.3c-2.1-2.8-4.4-0.7-6.5-0.3C10.8,130.1,9.7,134.1,10.1,136.5z M6.7,156.5
		c1.7,0,3,0.2,4.3-0.1c1.3-0.3,3.2-3.3,3.1-3.9c0.8-0.7,0.8-2.7,0.1-2.9c-2.6-0.9-5,0.2-6.9,1.7c-0.8,0.7-0.5,2.7-0.7,4.2
		C6.6,156,6.7,156.5,6.7,156.5z M102.8,75c-0.7-1.6-1.9-3.5-2.5-5.7c-0.5-2.1-0.4-4.3-0.6-6.5c-0.2-0.1-0.4-0.2-0.7-0.3
		c-0.5,0.8-1.3,1.6-1.3,2.4c0,2.2-1.3,4.5,0.2,6.7C98.2,72,99.7,78.2,102.8,75z M6.7,146.9c3.1-1,6.3-2,9.7-3.1
		c0.1-0.4,0.4-1.2,0.7-1.8c-1.6-0.5-3.4-0.9-5-1.6c-2.1-0.9-3.5-0.3-4.1,1.9C7.5,143.9,7.1,145.6,6.7,146.9z M97.4,77.7
		c-4-2.1-5.1-5.9-7.1-9.3c-0.5,1-1,2.2-0.8,3.2c0.8,2.9,1.8,5.8,2.9,8.6c0.1,0.3,1.4,0.6,1.8,0.4C95.3,79.8,96.2,78.8,97.4,77.7z
		 M24.8,124c0.5-2,0-3.1-1.7-3.7c-2.1-0.8-4.2-1.7-6.6-2.6c-0.6,1.1-1.6,2.1-1.8,3.3c-0.1,0.5,1.1,1.7,1.9,1.9
		C19.3,123.4,22,123.7,24.8,124z M29.9,116.4c1.3-1.8-0.2-3.1-1.4-4.1c-3.6-2.9-5-2.6-9.4,2C22.7,115,26.2,115.7,29.9,116.4z
		 M37.6,110.4c-0.7-2.3-1.3-4.2-1.9-6.3c-4.1-0.6-6.8,0.7-6.5,2.7c1.9,1.1,3.7,1.8,4.9,3.1C35.4,111.2,36.5,111.2,37.6,110.4z
		 M263.2,152.7c2,2.3,3.8,4.5,6,7C269.1,156.1,265.8,152.4,263.2,152.7z M378.3,3.5c-1.5,0.5-3,0.9-4.6,1.4c0.1,0.3,0.2,0.6,0.3,0.9
		C375.6,5.4,377.6,6.7,378.3,3.5z"/>
	<path class="st0" d="M246.2,63.5c-2.2,1.7-4.4,3.4-6.7,5.1c-0.3,0.2-0.7,0.5-1,0.7c0.4-5.9,4.3-16.5,11.6-22c-0.8,2.2-1.2,4-2,5.6
		c-0.9,1.8-2.5,3.3-3.3,5.1c-0.5,1.1,1.7,3.6,2.1,3c1.8-2.6,4.4-3.5,7.2-4.2C251.5,58.9,248.9,61.2,246.2,63.5z"/>
	<path class="st1" d="M269.2,159.7c-2.2-2.6-4-4.7-6-7"/>
	<path class="st1" d="M374,5.7c-0.1-0.3-0.2-0.6-0.3-0.9"/>
	<path class="st0" d="M228.2,79.9c-1.2,3.9-2.3,7.4-3.3,10.8c-0.2,0.7-0.6,9.6,0.3,12.6c0.7,2.4,2.3,4.5,3.5,6.8
		c0.3,0.5-2.2,1-2.9,0.1c-1.7-1.9-3.7-3.7-4.9-5.9c-2.4-4.3-4-8.9-2.6-14c0.6-2.1,12.1-28.2,13.2-29.9c1.9-3,4.3-5.7,6.7-8.8
		c0.5,0.8,0.7,1.4,0.8,1.5c-1,1.8-2.1,3.2-2.6,4.8C235.8,60.4,228.2,79.9,228.2,79.9z"/>
	<path class="st0" d="M212.1,77c-1,2.6-1.2,5.4-0.6,8c0.5,1.9,0.3,3.6,0.1,5.5c0,0.5,0,1,0,1.4c0.1,2.2,3.1,11.6,2.9,13.7
		c-2.3-0.9-10.3-6.1-9.9-9.2c0.5-4.5,0.3-9,0.8-13.5c0.3-2.8,1.3-5.5,2-8.3c0.3-1.3,0.7-2.5,1.1-3.9c-0.5,0.1,3.3-11,5.7-12.7
		c2.5-1.8,4.7-4,7.1-6.1c0.3-0.3,0.8-0.4,1.6-0.3c-1.1,2-2.1,4-3.2,6c-1.5,2.8-3.2,5.6-4.5,8.5"/>
	<path class="st0" d="M196.9,36.2c-1.3,1.1-2.7,2.2-4,3.4c-0.8,0.7-1.6,1.3-2.2,2.2c-2.4,3.8-4.7,7.6-7,11.3
		c0.4-0.2-0.5,18.1-0.8,19.4c-1,3.6,1,6.9,1.3,10.4c0.1,1.3,0,2.6-0.4,3.9c-1.2-2.7-2.6-4.8-5.3-6.3c-1.4-0.7-2.3-3.1-2.9-4.9
		c-0.7-2.2-1.1-4.5-1.4-6.8c-0.1-1.3,1-7.8,1.5-9.8c0.7-2.8,2.9-7.7,2.4-7.8c-0.6-1.9,13.9-14.8,18.2-15.6
		C196.6,35.7,196.7,36,196.9,36.2z"/>
	<path class="st0" d="M139,100.7c0.1,1.3-0.9,2.8-1.7,4c-0.9,1.3-2.1,2.4-3.5,3.4c0.7-1.1,1.5-2.1,2.2-3.2c0.3-0.5,0.7-1,0.7-1.5
		c0-1.6,1-3.5-1.8-4.1c-1-0.2-2.1-1.6-2.7-2.7c-0.9-1.8-2.3-2.3-4.1-2.4c-1.7,0-3.5,0.9-5-0.7c-0.1-0.1-0.6,0-0.9,0.2
		c-4.1,2.2-8.3,4.4-12.4,6.7c-0.1-0.2-0.3-0.4-0.4-0.5c2.2-1.9,4.2-4,6.5-5.8c2.6-1.9,5.5-3.4,8-5.3c1.7-1.3,3.3-0.2,4.9-0.2
		c0.1,0,2.1-2.2,1-4c-0.2-0.4-0.5-0.8-0.5-1.2c0.1-2.5,0.4-5,0.5-7.5c0.2-4.2,1.8-7.8,3.7-11.4c0.7-1.4,1.4-2.8,2.5-4
		c-0.7,3.3-1.5,6.6-2,9.9c-0.2,1.3,0.5,2.7,0.5,4.1c0,4-0.8,8.3,0.1,12.1C135.6,89.8,138.8,98.5,139,100.7z"/>
	<path class="st0" d="M191.4,26.3c-3.6,4.7-7.1,9.5-10.8,14.2c-1.4,1.8-3.3,3.2-4.4,5.1c-2,3.4-4,6.9-5.2,10.6
		c-0.9,2.9-0.5,6.2-0.8,9.2c-0.2,1.7-0.5,3.5-0.8,5.2c-0.6,3.4-0.2,6.9-1.9,10.1c-0.4,0.6-0.8,1.2-1.5,2.2c0-4.1-0.5-7.6,0.1-11
		c1.2-5.9,1.4-11.9,2-17.9c0.4-4,0.7-8.2,2.1-11.9c1.2-3.1,3.5-6.1,6-8.4c2.8-2.5,6.2-4.4,9.6-6.2c1.7-0.9,3.7-1.3,5.6-1.9
		C191.4,25.9,191.4,26.1,191.4,26.3z"/>
	<path class="st0" d="M156.9,47.7c0,1.8,0.1,3.6,0,5.4c-0.2,2.7-0.8,5.3-0.9,8c0,1.2,0.7,2.4,1.1,3.6c0.3,1,0.3,2.1,0.6,3.1
		c0.1,0.5,2.7,21.3-1.2,26c-0.3,0-0.6-0.1-0.9-0.1c0-1.8-0.1-3.7,0-5.5c0.3-2.6,1.1-5.3,1-7.9c-0.1-2.5-1.5-4.8-2-7.3
		c-1.8-8.3-2.5-16.6,1.5-24.5c0.1-0.2,0.2-0.4,0.4-0.6C156.5,47.8,156.7,47.8,156.9,47.7z"/>
	<path class="st0" d="M110.2,77.3c2.2-2.2,4.7-4.2,6.7-6.6c1.5-1.9,3.3-2.3,5.8-2.2c-2.1,2.7-4.2,5.1-6,7.7
		c-1.3,1.8-2.4,3.8-3.6,5.8c-0.8,1.2-1.6,2.4-2.2,3.7c-1.4,3.2-2.7,6.5-4.2,9.7c-0.2,0.4-0.8,0.6-1.2,0.9c-0.2-0.5-0.7-1.1-0.6-1.6
		c0.9-5.2,2-10.2,4.7-14.8C110,79.1,110,78.1,110.2,77.3L110.2,77.3z"/>
	<path class="st0" d="M113.9,91.1c1.8-2,3.5-3.5,4.5-5.3c1.5-2.6,2.5-5.4,3.7-8.1c1.1-2.4,2.1-4.9,3.4-7.2c1.9-3.3,4-6.5,6.2-9.6
		c0.9-1.2,2.4-2,3.9-2.6c-1.2,1.9-2.5,3.8-3.7,5.8c-0.8,1.5-1.5,3.1-2.1,4.7c-0.1,0.3-0.1,0.7-0.3,0.9c-3.1,5-4.1,11.1-8,15.6
		c-1.7,2-3.7,3.8-5.7,5.6C115.5,91.1,114.8,91,113.9,91.1z"/>
	<path class="st0" d="M106.9,81c-0.2,0-0.4-0.1-0.6-0.1c0.5-2,0.6-4.3,1.5-6.1c3.3-6.5,7.3-12.4,12.8-17.4c2-1.8,2.9-4.8,4.4-7.1
		c0.7-1,1.6-1.8,2.5-2.7c0.3,0.2,0.6,0.3,0.9,0.5c-0.9,2.3-1.4,5-2.8,7c-3.9,5.3-8.5,10.1-12.4,15.4C111.6,72.3,108,79.7,106.9,81z"
		/>
	<path class="st0" d="M170.3,30.2c-1.8,5.6-3.5,11-5.3,16.2c-1.8,5.4-0.4,11-0.6,16.5c-0.3,0-0.6,0.1-0.9,0.1
		c-0.4-1.2-0.8-2.3-1.1-3.5c-1.2-5.3-2.5-10.5-0.6-15.9c0.4-1.3,1.2-2.4,1.8-3.7c0.8-1.7,1.5-3.4,2.2-5.1
		C166.6,32.8,167.6,31,170.3,30.2z"/>
	<path class="st0" d="M128.9,109.4c-0.4-1.9-1.4-6.7-3-6.9c-2.8-0.3-5.5-0.9-8.5-1.3c1.9-1.5,3.8-3.2,6.3-2.3c2.3,0.8,4.6,2,6.6,3.5
		C132.5,104,131.9,106.6,128.9,109.4z"/>
	<path class="st0" d="M170.4,24.6c-4,2.1-6.1,6.6-10.5,8.2C162.3,28.6,165.7,25.7,170.4,24.6z"/>
	<path class="st0" d="M84.8,156.4c-1.5-0.7-3.1-2.1-4.6-2.1c-1.7-0.1-3.5,1-5.3,1.7c-0.1-2.2,1.7-2.7,3.2-3.4c3.4-1.5,4.9,1.4,7.1,3
		C85,155.9,84.9,156.1,84.8,156.4z"/>
	<path class="st0" d="M312.6,85.1c-0.3,2.7-0.5,5.1-0.8,8c-2.5-2.6-3.1-5.4-3.2-8.3c-0.1-1.7,0.3-3.4,0.5-5.1
		c0.1-1.6,0.3-3.2,0.3-4.8c0-1.9,0.4-3.6,1.1-5.4c1.7-4.3,2.9-8.8,3.7-13.4c0.6-3.2,0.1-6.5,0.5-9.8c1.7,3.6,2.3,14.1,2.1,15.4
		c-0.4,2.6-1.2,5-1.9,7.5C314,72.6,312.4,85,312.6,85.1z"/>
	<path class="st0" d="M315.8,91.6c2.1-6,3-12.1,6.6-17.2c3-4.2,6.4-8.2,9-12.6c1.7-2.9,2.2-6.5,3.3-9.7c1.2-3.6,2.5-7.2,3.8-10.7
		c0.1-0.4,0.7-0.5,1.5-0.6c-0.3,1-0.5,2-0.8,3c-1,4.3-1.7,8.8-3.2,13c-1.1,3.2-3.3,6-5.1,8.9c-0.8,1.3-1.7,2.5-2.4,3.8
		c-2.9,5.2-5.7,10.4-8.5,15.6c-0.4,0.7-0.2,1.7-0.2,2.6C320.2,90,318.6,91.8,315.8,91.6z"/>
	<path class="st0" d="M325.9,81.9c2.9-2.5,5.6-4.7,8.1-7.1c3.4-3.3,6-7.1,7.3-11.8c0.6-2,1.8-3.8,3.1-5.5c-1,5.8-3.6,10.8-6.2,15.9
		c-2.3,4.5-5.5,7.4-10.3,8.8c-0.3,0.1-0.6,0.2-0.9,0.2C326.8,82.4,326.6,82.2,325.9,81.9z"/>
	<path class="st0" d="M349.4,34.3c-1.2-4.5,4.4-16.2,10.2-17.7c-1.7,2.6-3.3,5-4.7,7.3c-0.3,0.5-0.2,1.1-0.3,1.7
		c0,0.2,0.2,0.5,0.2,0.6C353.1,28.8,351.4,31.4,349.4,34.3z"/>
	<path class="st0" d="M351.3,35.6c-2.8,5.9-5.7,11.7-8.5,17.6C340.8,50.2,345.2,40.5,351.3,35.6z"/>
</g>
</svg>
